Coordinates
version=1
nRows=7
nColumns=40
inDegrees=yes

Units are S.I. units (second, meters, Newtons, ...)
Angles are in degrees.

endheader
time	pelvis_tilt	pelvis_list	pelvis_rotation	pelvis_tx	pelvis_ty	pelvis_tz	hip_flexion_r	hip_adduction_r	hip_rotation_r	knee_angle_r	knee_angle_r_beta	ankle_angle_r	subtalar_angle_r	mtp_angle_r	hip_flexion_l	hip_adduction_l	hip_rotation_l	knee_angle_l	knee_angle_l_beta	ankle_angle_l	subtalar_angle_l	mtp_angle_l	lumbar_extension	lumbar_bending	lumbar_rotation	arm_flex_r	arm_add_r	arm_rot_r	elbow_flex_r	pro_sup_r	wrist_flex_r	wrist_dev_r	arm_flex_l	arm_add_l	arm_rot_l	elbow_flex_l	pro_sup_l	wrist_flex_l	wrist_dev_l
     11.05000000	     -6.03834815	     -5.57092659	      5.91124601	      0.99783406	      0.92701146	      0.49264715	     16.14917233	      3.11792204	    -17.58120702	     17.89602625	     17.89602625	     10.13060447	     -3.88651150	     -1.28382899	     37.04919238	     -9.67901615	      6.65267915	     63.47498379	     63.47498379	      7.32905750	    -18.58131244	     12.14901412	    -12.74631243	      4.61168920	      3.39080393	      4.97345763	    -14.41660910	     -5.44868674	     52.49515061	     45.64016962	      0.00000000	      0.00000000	      4.70367439	     -7.02450873	     -6.93491824	     44.78063489	     45.87615129	      0.00000000	      0.00000000
     11.06171429	     -6.14295154	     -5.53460559	      6.20055646	      0.99606470	      0.92732342	      0.49323044	     15.42295348	      3.26526326	    -17.62228978	     17.19909772	     17.19909772	     10.32835439	     -3.85928481	     -1.30465684	     38.56798050	     -9.54401048	      6.21944179	     61.18981656	     61.18981656	      7.72813855	    -18.72164056	     12.45273371	    -12.73253667	      4.43292464	      2.76359723	      7.76280316	    -14.23065248	     -5.50937547	     54.70648436	     45.57665127	      0.00000000	      0.00000000	      3.31708590	     -7.15786373	     -6.84594040	     42.41043403	     45.85137381	      0.00000000	      0.00000000
     11.07342857	     -6.22575415	     -5.49752275	      6.50863145	      0.99427265	      0.92743785	      0.49364760	     14.80222866	      3.36207019	    -17.69663388	     16.75341116	     16.75341116	     10.59730447	     -3.91132658	     -1.49928946	     39.83403101	     -9.31260620	      5.84477032	     58.60654130	     58.60654130	      8.01403441	    -18.77849004	     12.73859846	    -12.76662584	      4.35547184	      2.30601067	     10.29929687	    -14.24954844	     -5.23946798	     57.48385816	     45.47946090	      0.00000000	      0.00000000	      2.38066336	     -7.12021414	     -6.84422475	     39.16985679	     45.84678567	      0.00000000	      0.00000000
     11.08514286	     -6.29823342	     -5.35993419	      6.75046493	      0.99258000	      0.92763799	      0.49403367	     14.15472402	      3.36250751	    -17.71299516	     16.29499315	     16.29499315	     10.87281969	     -3.91574694	     -1.64970207	     40.75281525	     -8.92943508	      5.46713922	     55.65928530	     55.65928530	      8.13886209	    -18.77431034	     13.05511727	    -12.83153661	      4.11266308	      2.11154893	     12.70675117	    -14.30483945	     -5.07204632	     59.98690418	     45.39739743	      0.00000000	      0.00000000	      1.45729978	     -7.07334786	     -6.84020558	     36.52510533	     45.84092513	      0.00000000	      0.00000000
     11.09685714	     -6.43041045	     -5.35743571	      6.98047013	      0.99093442	      0.92747071	      0.49422709	     13.62466439	      3.45106076	    -17.89215133	     15.90390423	     15.90390423	     11.02072608	     -3.77176934	     -2.20463285	     41.61145970	     -8.54079093	      5.37722270	     52.64310528	     52.64310528	      8.19202912	    -18.61920086	     12.95627812	    -12.78301525	      4.10692713	      2.71985414	     14.17321607	    -15.36874327	     -4.02673608	     64.17045481	     45.22739126	      0.00000000	      0.00000000	      2.18545417	     -6.56665854	     -7.18309994	     30.63359634	     45.94446399	      0.00000000	      0.00000000
     11.10857143	     -6.46131758	     -5.24843099	      7.13205968	      0.98947364	      0.92754947	      0.49439717	     12.96874931	      3.46082867	    -17.94945011	     15.51928585	     15.51928585	     11.25505225	     -3.66264092	     -2.50566461	     42.06226250	     -8.04602341	      5.34859601	     49.38717232	     49.38717232	      8.08249420	    -18.33905295	     12.67064527	    -12.88932458	      3.94568530	      2.90148737	     16.26331336	    -15.51560846	     -4.29591139	     67.16965471	     45.15670379	      0.00000000	      0.00000000	      1.61472724	     -6.42791114	     -7.64552088	     27.88424080	     46.05512093	      0.00000000	      0.00000000
     11.12028571	     -6.49962312	     -5.15166075	      7.25546601	      0.98815758	      0.92750467	      0.49441836	     12.30765077	      3.48607980	    -17.93596336	     15.12360778	     15.12360778	     11.57155958	     -3.51198316	     -2.61758755	     42.38576995	     -7.47694603	      5.59929356	     46.14910677	     46.14910677	      8.15398584	    -17.84439118	     12.73887780	    -12.95484785	      3.79287080	      2.79220799	     18.87006970	    -15.39707569	     -4.43227837	     69.35320349	     45.10345274	      0.00000000	      0.00000000	      0.40881907	     -6.44036653	     -7.71512741	     26.59208417	     46.06003026	      0.00000000	      0.00000000
